<svg xmlns="http://www.w3.org/2000/svg" width="156.633" height="156.633" viewBox="0 0 156.633 156.633">
  <path id="Icon_awesome-user-circle" data-name="Icon awesome-user-circle" d="M78.316.562a78.316,78.316,0,1,0,78.316,78.316A78.3,78.3,0,0,0,78.316.562Zm0,30.316a27.79,27.79,0,1,1-27.79,27.79A27.79,27.79,0,0,1,78.316,30.878Zm0,108.632a60.514,60.514,0,0,1-46.263-21.537A35.209,35.209,0,0,1,63.158,99.089a7.727,7.727,0,0,1,2.242.347,41.811,41.811,0,0,0,12.916,2.179,41.652,41.652,0,0,0,12.916-2.179,7.727,7.727,0,0,1,2.242-.347,35.209,35.209,0,0,1,31.105,18.884A60.514,60.514,0,0,1,78.316,139.511Z" transform="translate(0 -0.563)"/>
</svg>
