<svg xmlns="http://www.w3.org/2000/svg" width="45.367" height="50.408" viewBox="0 0 45.367 50.408">
  <path id="Icon_material-date-range" data-name="Icon material-date-range" d="M19.622,25.684H14.582v5.041h5.041Zm10.082,0H24.663v5.041H29.7Zm10.082,0H34.745v5.041h5.041ZM44.827,8.041h-2.52V3H37.265V8.041H17.1V3H12.061V8.041H9.541a5.018,5.018,0,0,0-5.016,5.041L4.5,48.367a5.039,5.039,0,0,0,5.041,5.041H44.827a5.056,5.056,0,0,0,5.041-5.041V13.082A5.056,5.056,0,0,0,44.827,8.041Zm0,40.327H9.541V20.643H44.827Z" transform="translate(-4.5 -3)" fill="#707070"/>
</svg>
