<svg xmlns="http://www.w3.org/2000/svg" width="60.462" height="60.462" viewBox="0 0 60.462 60.462">
  <path id="Icon_metro-cancel" data-name="Icon metro-cancel" d="M32.8,1.928A30.231,30.231,0,1,0,63.033,32.159,30.231,30.231,0,0,0,32.8,1.928Zm0,54.794A24.563,24.563,0,1,1,57.365,32.159,24.563,24.563,0,0,1,32.8,56.722Zm9.447-39.678L32.8,26.491l-9.447-9.447-5.668,5.668,9.447,9.447-9.447,9.447,5.668,5.668L32.8,37.827l9.447,9.447,5.668-5.668L38.47,32.159l9.447-9.447Z" transform="translate(-2.571 -1.928)"/>
</svg>
