<svg xmlns="http://www.w3.org/2000/svg" width="66.5" height="66.5" viewBox="0 0 66.5 66.5">
  <g id="search-circle" transform="translate(-4.5 -4.5)">
    <path id="Path_362" data-name="Path 362" d="M37.75,4.5A33.25,33.25,0,1,0,71,37.75,33.287,33.287,0,0,0,37.75,4.5ZM53.562,53.562a2.771,2.771,0,0,1-3.916,0l-7.418-7.416a15.253,15.253,0,1,1,3.919-3.919l7.416,7.418a2.771,2.771,0,0,1,0,3.916Z" fill="#707070"/>
    <path id="Path_363" data-name="Path 363" d="M31.771,22.074a9.7,9.7,0,1,1-9.7-9.7,9.7,9.7,0,0,1,9.7,9.7Z" transform="translate(11.521 11.521)" fill="#707070"/>
  </g>
</svg>
